<svg width="1056" height="418" viewBox="0 0 1056 418" fill="none" xmlns="http://www.w3.org/2000/svg">
<path d="M527.643 417.231C818.974 417.231 1055.14 401.596 1055.14 382.309C1055.14 363.023 818.974 347.388 527.643 347.388C236.313 347.388 0.143433 363.023 0.143433 382.309C0.143433 401.596 236.313 417.231 527.643 417.231Z" fill="#F2F2F2"/>
<path d="M507.426 0.00971985C421.482 0.00971985 359.775 55.1491 359.775 183.808C359.775 329.621 421.482 368.218 507.426 368.218C593.37 368.218 658.753 325.945 658.753 183.808C658.753 31.868 593.37 0.00971985 507.426 0.00971985ZM507.991 319.818C448.464 319.818 417.365 284.895 417.365 183.902C417.365 94.79 449.737 47.7972 509.264 47.7972C568.791 47.7972 601.163 78.6649 601.163 183.902C601.163 282.349 567.517 319.818 507.991 319.818Z" fill="#2F2E41"/>
<path d="M308.311 266.517H272.777V161.877C272.777 156.32 270.569 150.989 266.639 147.059C262.709 143.129 257.379 140.922 251.821 140.922H243.495C240.743 140.922 238.018 141.464 235.475 142.517C232.933 143.57 230.623 145.113 228.677 147.059C226.731 149.005 225.187 151.315 224.134 153.858C223.081 156.4 222.539 159.125 222.539 161.877V266.517H122.309C120.247 266.517 118.22 265.984 116.425 264.97C114.629 263.955 113.127 262.494 112.062 260.728C110.998 258.962 110.408 256.951 110.35 254.89C110.292 252.829 110.768 250.788 111.731 248.965L217.814 48.1844C219.136 45.6812 219.938 42.9359 220.17 40.1143C220.402 37.2927 220.061 34.4533 219.165 31.7675C218.27 29.0817 216.84 26.6051 214.961 24.4873C213.082 22.3695 210.793 20.6544 208.233 19.4455L201.971 16.4883C197.108 14.1921 191.549 13.853 186.444 15.5413C181.338 17.2296 177.077 20.8159 174.542 25.5583L45.1602 267.591C42.957 271.712 41.8043 276.314 41.8043 280.987V280.987C41.8043 284.719 42.5393 288.414 43.9673 291.861C45.3954 295.309 47.4885 298.441 50.1271 301.08C52.7658 303.719 55.8983 305.812 59.3459 307.24C62.7935 308.668 66.4885 309.403 70.2202 309.403H222.539V375.57C222.539 378.869 223.189 382.135 224.451 385.183C225.713 388.23 227.564 390.999 229.896 393.332C232.229 395.664 234.998 397.515 238.045 398.777C241.093 400.039 244.359 400.689 247.658 400.689H247.658C250.957 400.689 254.223 400.039 257.271 398.777C260.318 397.515 263.087 395.664 265.42 393.332C267.752 390.999 269.603 388.23 270.865 385.183C272.127 382.135 272.777 378.869 272.777 375.57V309.403H308.311C313.998 309.403 319.452 307.144 323.474 303.122C327.495 299.101 329.754 293.647 329.754 287.96V287.96C329.754 282.273 327.495 276.819 323.474 272.797C319.453 268.776 313.998 266.517 308.311 266.517V266.517Z" fill="#1366F2"/>
<path d="M966.308 266.517H930.774V161.877C930.774 156.32 928.566 150.989 924.636 147.059C920.706 143.129 915.376 140.922 909.818 140.922H901.491C898.739 140.922 896.014 141.464 893.472 142.517C890.929 143.57 888.619 145.113 886.673 147.059C884.727 149.005 883.184 151.315 882.131 153.858C881.077 156.4 880.535 159.125 880.535 161.877V266.517H780.305C778.243 266.517 776.216 265.984 774.421 264.97C772.626 263.955 771.123 262.494 770.059 260.728C768.995 258.962 768.405 256.951 768.347 254.89C768.289 252.829 768.764 250.788 769.728 248.965L875.81 48.1844C877.133 45.6812 877.934 42.9359 878.167 40.1143C878.399 37.2928 878.057 34.4533 877.162 31.7675C876.266 29.0817 874.836 26.6051 872.957 24.4873C871.078 22.3695 868.79 20.6544 866.23 19.4455L859.967 16.4883C855.105 14.1921 849.546 13.853 844.44 15.5413C839.334 17.2296 835.073 20.8159 832.538 25.5583L703.157 267.591C700.953 271.712 699.801 276.314 699.801 280.987V280.987C699.801 288.523 702.795 295.751 708.124 301.08C713.453 306.409 720.68 309.403 728.217 309.403H880.535V375.57C880.535 382.232 883.182 388.621 887.893 393.332C892.603 398.043 898.992 400.689 905.654 400.689V400.689C912.316 400.689 918.706 398.043 923.416 393.332C928.127 388.621 930.773 382.232 930.773 375.57V309.403H966.308C971.995 309.403 977.449 307.144 981.47 303.122C985.492 299.101 987.751 293.647 987.751 287.96V287.96C987.751 282.273 985.492 276.819 981.47 272.797C977.449 268.776 971.995 266.517 966.308 266.517Z" fill="#1366F2"/>
</svg>
